<?xml version="1.0" encoding="UTF-8"?><svg id="a" xmlns="http://www.w3.org/2000/svg" width="41.91" height="58.71" xmlns:xlink="http://www.w3.org/1999/xlink" viewBox="0 0 41.91 58.71"><defs><linearGradient id="b" x1="5.02" y1="23.59" x2="36.91" y2="23.59" gradientUnits="userSpaceOnUse"><stop offset="0" stop-color="#fff" stop-opacity="0"/><stop offset="1" stop-color="#231f20" stop-opacity=".05"/></linearGradient><linearGradient id="c" x1="5.03" y1="6.58" x2="36.87" y2="6.58" gradientUnits="userSpaceOnUse"><stop offset="0" stop-color="#fff" stop-opacity="0"/><stop offset="1" stop-color="#231f20" stop-opacity=".7"/></linearGradient></defs><path d="M31.01,45.05H11.86c-.58,0-1.07-.43-1.15-1L5.03,3.46c-.1-.7.45-1.32,1.15-1.32h29.56c.7,0,1.24.61,1.16,1.3l-4.73,40.59c-.07.59-.57,1.03-1.16,1.03Z" fill="url(#b)"/><path d="M28.53,7.98c-7.17,0-8.86,3.04-15.97,3.04-2.33,0-4.56-.16-6.51-.36l4.67,33.39c.08.57.57,1,1.15,1h19.16c.59,0,1.09-.44,1.16-1.03l4.13-35.42c-2.07-.33-4.74-.63-7.78-.63Z" fill="#f7c781" stroke-width="0"/><path d="M12.53,11c-2.05,0-4.24-.12-6.51-.36l-.98-7.18c-.05-.33.05-.66.27-.9s.53-.39.86-.39h29.56c.32,0,.63.14.85.38.22.24.32.57.28.89l-.6,5.17c-2.54-.44-5.16-.65-7.76-.65-3.6,0-5.85.78-8.03,1.53-2.16.75-4.39,1.52-7.93,1.52Z" fill="#fff" opacity=".16" stroke-width="0"/><path d="M35.73,2.18c.32,0,.62.14.83.37s.31.55.27.87l-.6,5.12c-2.56-.41-5.16-.62-7.74-.62-3.6,0-5.86.78-8.04,1.53-2.16.74-4.39,1.51-7.93,1.51-2.04,0-4.22-.12-6.47-.36l-1-7.16c-.04-.32.05-.64.26-.89.21-.24.52-.38.84-.38h29.56M35.73,2.13H6.17c-.71,0-1.25.62-1.15,1.32l1.01,7.2c1.95.21,4.18.36,6.51.36,7.1,0,8.79-3.04,15.97-3.04,3.04,0,5.71.29,7.78.63l.6-5.17c.08-.69-.46-1.3-1.16-1.3h0Z" fill="#e0e0e0" stroke-width="0"/><path d="M12.53,11c-2.05,0-4.24-.12-6.51-.36l-.98-7.18c-.05-.33.05-.66.27-.9s.53-.39.86-.39h29.56c.32,0,.63.14.85.38.22.24.32.57.28.89l-.6,5.17c-2.54-.44-5.16-.65-7.76-.65-3.6,0-5.85.78-8.03,1.53-2.16.75-4.39,1.52-7.93,1.52Z" fill="url(#c)" stroke-width="0"/><path d="M35.73,2.18c.32,0,.62.14.83.37s.31.55.27.87l-.6,5.12c-2.56-.41-5.16-.62-7.74-.62-3.6,0-5.86.78-8.04,1.53-2.16.74-4.39,1.51-7.93,1.51-2.04,0-4.22-.12-6.47-.36l-1-7.16c-.04-.32.05-.64.26-.89.21-.24.52-.38.84-.38h29.56M35.73,2.13H6.17c-.71,0-1.25.62-1.15,1.32l1.01,7.2c1.95.21,4.18.36,6.51.36,7.1,0,8.79-3.04,15.97-3.04,3.04,0,5.71.29,7.78.63l.6-5.17c.08-.69-.46-1.3-1.16-1.3h0Z" fill="#e0e0e0" stroke-width="0"/><path d="M27.79,16.36c.37,0,.67.3.67.67s-.3.67-.67.67-.67-.3-.67-.67.3-.67.67-.67M27.79,16.16c-.48,0-.87.39-.87.87s.39.87.87.87.87-.39.87-.87-.39-.87-.87-.87h0Z" fill="#fff" stroke-width="0"/><path d="M30.79,18.1c.37,0,.67.3.67.67s-.3.67-.67.67-.67-.3-.67-.67.3-.67.67-.67M30.79,17.9c-.48,0-.87.39-.87.87s.39.87.87.87.87-.39.87-.87-.39-.87-.87-.87h0Z" fill="#fff" stroke-width="0"/><path d="M29.92,13.16c.53,0,.97.43.97.97s-.43.97-.97.97-.97-.43-.97-.97.43-.97.97-.97M29.92,12.87c-.69,0-1.26.56-1.26,1.26s.56,1.26,1.26,1.26,1.26-.56,1.26-1.26-.56-1.26-1.26-1.26h0Z" fill="#fff" stroke-width="0"/><path d="M21.03,56.35l-5.27-6.42c-.33-.4-.04-.99.47-.99h10.54c.51,0,.79.6.47.99l-5.27,6.42c-.24.3-.7.3-.94,0Z" fill="#fff" stroke-width="0"/><path d="M28.53,7.98c3.04,0,5.71.29,7.78.63l.6-5.17c.08-.69-.46-1.3-1.16-1.3H6.19c-.71,0-1.25.62-1.15,1.32l1.01,7.2c1.95.21,4.18.36,6.51.36,7.1,0,8.79-3.04,15.97-3.04Z" fill="#fff" stroke-width="0"/></svg>